<?xml version="1.0" encoding="UTF-8" standalone="no"?>
<svg width="297px" height="301px" viewBox="0 0 297 301" version="1.1" xmlns="http://www.w3.org/2000/svg" xmlns:xlink="http://www.w3.org/1999/xlink">
    <!-- Generator: Sketch 3.8.3 (29802) - http://www.bohemiancoding.com/sketch -->
    <title>Page 1</title>
    <desc>Created with Sketch.</desc>
    <defs>
        <polygon id="path-1" points="296.385075 0.622391006 0.000245429164 0.622391006 0.000245429164 300.684158 296.385075 300.684158 296.385075 0.622391006"></polygon>
    </defs>
    <g id="Page-1" stroke="none" stroke-width="1" fill="none" fill-rule="evenodd">
        <g id="Desktop" transform="translate(-701.000000, -402.000000)">
            <g id="Page-1" transform="translate(701.000000, 402.000000)">
                <g id="Group-3" transform="translate(0.000000, 0.014652)">
                    <mask id="mask-2" fill="white">
                        <use xlink:href="#path-1"></use>
                    </mask>
                    <g id="Clip-2"></g>
                    <path d="M12.9193112,150.743548 C13.2452561,226.751696 73.726915,287.80717 148.518059,287.629435 C223.154411,287.452337 283.683263,225.914621 283.490716,150.408463 C283.296282,74.3805668 222.347099,13.2964251 147.084657,13.7022215 C73.0322371,14.1016474 12.597771,75.8311137 12.9193112,150.743548 M148.41864,0.621817667 C229.991703,0.620543581 296.334707,67.8852764 296.385046,150.645443 C296.435385,233.430454 229.784684,300.882478 148.127932,300.68372 C66.2610146,300.484963 -0.131070127,233.317061 0.000440466106,150.825089 C0.132580297,67.598607 66.3113536,0.623728796 148.41864,0.621817667" id="Fill-1" fill="#FFFFFF" mask="url(#mask-2)"></path>
                </g>
                <path d="M150.283384,179.64794 C151.386437,178.059155 151.928211,176.981915 152.731117,176.1665 C167.679908,160.981306 182.668969,145.836246 197.622793,130.655512 C199.662151,128.585122 201.823581,127.146679 204.86909,128.067206 C209.172444,129.367411 210.942488,134.286657 208.381492,138.023551 C207.73149,138.971471 206.858109,139.769686 206.045134,140.594656 C189.245128,157.656579 172.437571,174.711494 155.634418,191.770231 C151.985471,195.474636 148.339041,195.538978 144.704567,191.863877 C127.423194,174.387876 110.152518,156.900409 92.8906513,139.40466 C90.1125686,136.58893 89.4921407,133.934372 90.9217678,131.125012 C92.3381809,128.343046 94.7368335,126.992514 97.6678208,127.700269 C99.3673907,128.110525 101.063185,129.329825 102.341166,130.613467 C117.077903,145.412613 131.738503,160.288841 146.40099,175.163157 C147.509077,176.286901 148.477473,177.552069 150.283384,179.64794" id="Fill-4" fill="#FFFFFF"></path>
            </g>
        </g>
    </g>
</svg>