<svg id="Layer_1" data-name="Layer 1" xmlns="http://www.w3.org/2000/svg" viewBox="0 0 152 40.21"><defs><style>.cls-1{fill:#33a544;}.cls-2{fill:#3b3a3c;}.cls-3{fill:#231f20;}</style></defs><title>LOGO-Common_Sense-screenRGB</title><path class="cls-1" d="M57,33.65A15.5,15.5,0,1,1,52.5,21.76a15,15,0,0,1,1.41,1.63l3-3.63c-0.36-.43-0.74-0.85-1.14-1.25a20.12,20.12,0,1,0,5.48,10.19Z" transform="translate(-21.42 -12.63)"/><path class="cls-2" d="M43.46,41.87h0A8.29,8.29,0,0,1,37.51,39l-5.44-5.83a2.2,2.2,0,0,1,.07-3.07,2.13,2.13,0,0,1,3,0l5.51,5.76h0a4.31,4.31,0,0,0,2.83,1.22c1.3,0,2.68-.8,4.09-2.34l15.69-19a2.13,2.13,0,1,1,3.29,2.71L50.76,37.86C48.49,40.37,46,41.87,43.46,41.87Z" transform="translate(-21.42 -12.63)"/><path class="cls-2" d="M82.08,29.65c-3.74,0-6.39-2.64-6.39-7.29,0-4.94,2.93-7.47,6.5-7.47A7.34,7.34,0,0,1,86.4,16.1l-0.47,3.18a5.39,5.39,0,0,0-3.55-1.33c-1.92,0-3.32,1.5-3.32,4.32s1.51,4.35,3.54,4.35a5.15,5.15,0,0,0,3.48-1.36l0.45,3A7.11,7.11,0,0,1,82.08,29.65Z" transform="translate(-21.42 -12.63)"/><path class="cls-2" d="M94.15,29.68c-3.65,0-6.31-2.76-6.31-7.38s2.68-7.42,6.34-7.42,6.36,2.8,6.36,7.42S97.83,29.68,94.15,29.68Zm0-11.88c-2,0-3,1.85-3,4.5s1.09,4.5,3,4.5,3.13-1.85,3.13-4.5S96.16,17.8,94.15,17.8Z" transform="translate(-21.42 -12.63)"/><path class="cls-2" d="M118.76,29.39V20.09c0-1.23-.42-2.09-1.64-2.09a4.42,4.42,0,0,0-3,1.76v9.62h-3.35V20.09c0-1.23-.44-2.09-1.68-2.09a4.42,4.42,0,0,0-3,1.76v9.62h-3.35V15.19h2.85l0.31,2a6.28,6.28,0,0,1,4.44-2.3,3.33,3.33,0,0,1,3.46,2.3,6.28,6.28,0,0,1,4.49-2.3c2.54,0,3.79,1.62,3.79,4.27V29.39h-3.35Z" transform="translate(-21.42 -12.63)"/><path class="cls-2" d="M141.27,29.39V20.09c0-1.23-.42-2.09-1.64-2.09a4.43,4.43,0,0,0-3,1.76v9.62h-3.35V20.09c0-1.23-.44-2.09-1.67-2.09a4.44,4.44,0,0,0-3,1.76v9.62h-3.34V15.19h2.84l0.31,2a6.3,6.3,0,0,1,4.44-2.3,3.33,3.33,0,0,1,3.46,2.3,6.3,6.3,0,0,1,4.49-2.3c2.53,0,3.79,1.62,3.79,4.27V29.39h-3.35Z" transform="translate(-21.42 -12.63)"/><path class="cls-2" d="M153.41,29.68c-3.66,0-6.31-2.76-6.31-7.38s2.67-7.42,6.33-7.42,6.36,2.8,6.36,7.42S157.09,29.68,153.41,29.68Zm0-11.88c-2,0-3,1.85-3,4.5s1.09,4.5,3,4.5,3.12-1.85,3.12-4.5S155.41,17.8,153.41,17.8Z" transform="translate(-21.42 -12.63)"/><path class="cls-2" d="M170.08,29.39V20.09c0-1.23-.51-2.09-1.74-2.09a4.44,4.44,0,0,0-3.06,1.79v9.59h-3.35V15.19h2.84l0.3,2a6.42,6.42,0,0,1,4.49-2.3c2.51,0,3.85,1.62,3.85,4.27V29.39h-3.34Z" transform="translate(-21.42 -12.63)"/><path class="cls-2" d="M81.37,50.92a11.22,11.22,0,0,1-5.25-1.38l0.44-2.94a9,9,0,0,0,4.91,1.68c1.45,0,2.23-.56,2.23-1.47s-0.58-1.41-2.73-2c-3.27-.88-4.63-1.88-4.63-4.47s1.83-4.17,5-4.17a10.88,10.88,0,0,1,4.71,1l-0.45,2.94a8.78,8.78,0,0,0-4.26-1.3c-1.26,0-1.87.5-1.87,1.3s0.5,1.18,2.5,1.74c3.5,0.94,4.86,1.94,4.86,4.61S84.91,50.92,81.37,50.92Z" transform="translate(-21.42 -12.63)"/><path class="cls-2" d="M100.22,44.24H91.58c0.16,2.77,1.55,4,3.62,4a7.62,7.62,0,0,0,4.63-1.76l0.39,2.76a8.89,8.89,0,0,1-5.39,1.74c-3.76,0-6.58-2.27-6.58-7.38,0-4.62,2.62-7.41,6.13-7.41,4,0,5.86,3.2,5.86,7.23C100.25,43.68,100.22,44,100.22,44.24ZM94.31,38.6c-1.34,0-2.42,1.11-2.68,3.44H97C96.76,39.83,95.93,38.6,94.31,38.6Z" transform="translate(-21.42 -12.63)"/><path class="cls-2" d="M110.92,50.65V41.36c0-1.23-.5-2.09-1.72-2.09a4.43,4.43,0,0,0-3.07,1.8v9.59h-3.35V36.45h2.85l0.31,2a6.4,6.4,0,0,1,4.49-2.29c2.51,0,3.85,1.62,3.85,4.27V50.65h-3.35Z" transform="translate(-21.42 -12.63)"/><path class="cls-2" d="M121.64,50.92a11.23,11.23,0,0,1-5.24-1.38l0.44-2.94a9,9,0,0,0,4.91,1.68c1.45,0,2.23-.56,2.23-1.47s-0.58-1.41-2.73-2c-3.27-.88-4.63-1.88-4.63-4.47s1.84-4.17,5-4.17a10.92,10.92,0,0,1,4.71,1l-0.45,2.94a8.8,8.8,0,0,0-4.27-1.3c-1.26,0-1.86.5-1.86,1.3s0.5,1.18,2.5,1.74c3.49,0.94,4.85,1.94,4.85,4.61S125.18,50.92,121.64,50.92Z" transform="translate(-21.42 -12.63)"/><path class="cls-2" d="M140.49,44.24h-8.64c0.17,2.77,1.56,4,3.63,4a7.65,7.65,0,0,0,4.63-1.76l0.38,2.76a8.85,8.85,0,0,1-5.38,1.74c-3.76,0-6.58-2.27-6.58-7.38,0-4.62,2.62-7.41,6.14-7.41,4,0,5.85,3.2,5.85,7.23C140.52,43.68,140.49,44,140.49,44.24Zm-5.9-5.64c-1.34,0-2.43,1.11-2.68,3.44h5.36C137,39.83,136.2,38.6,134.58,38.6Z" transform="translate(-21.42 -12.63)"/><path class="cls-3" d="M145.38,40.75a2.29,2.29,0,1,1,2.24-2.29A2.16,2.16,0,0,1,145.38,40.75Zm0-4.36a2.07,2.07,0,1,0,2,2.07A1.92,1.92,0,0,0,145.38,36.39Zm0.67,3.28-0.76-1.08H145v1.05h-0.36V37.1h0.69a0.76,0.76,0,0,1,.88.74,0.7,0.7,0,0,1-.53.7l0.75,1Zm-0.72-2.24H145v0.86h0.32a0.45,0.45,0,0,0,.53-0.43A0.43,0.43,0,0,0,145.33,37.44Z" transform="translate(-21.42 -12.63)"/></svg>